<svg xmlns="http://www.w3.org/2000/svg" xmlns:xlink="http://www.w3.org/1999/xlink" viewBox="0 0 173.56 40"><defs><style>.cls-1,.cls-2{fill-rule:evenodd;}.cls-1{fill:url(#linear-gradient);}.cls-2{fill:none;}.cls-3{fill:#fff;}</style><linearGradient id="linear-gradient" x1="21.1" y1="6.84" x2="21.1" y2="33.16" gradientUnits="userSpaceOnUse"><stop offset="0" stop-color="#f452ff"/><stop offset="1" stop-color="#832bc1"/></linearGradient></defs><title>apple-podcast-badge</title><g id="Layer_2" data-name="Layer 2"><g id="Layer_1-2" data-name="Layer 1"><rect width="173.56" height="40" rx="5"/><path class="cls-1" d="M33.74,29.65a5.7,5.7,0,0,1-1.68,2.21,5.5,5.5,0,0,1-1.86,1,11.4,11.4,0,0,1-3.18.34H15.18A11.49,11.49,0,0,1,12,32.82a5.44,5.44,0,0,1-1.85-1,5.51,5.51,0,0,1-1.68-2.21A10.23,10.23,0,0,1,8,25.92H8V14.08H8a10.2,10.2,0,0,1,.52-3.73A5.54,5.54,0,0,1,12,7.18a11.49,11.49,0,0,1,3.18-.34H27a11.4,11.4,0,0,1,3.18.34,5.5,5.5,0,0,1,1.86,1,5.63,5.63,0,0,1,1.68,2.21,10.2,10.2,0,0,1,.52,3.73V25.92A10.23,10.23,0,0,1,33.74,29.65Z"/><path class="cls-2" d="M33.74,29.65a5.7,5.7,0,0,1-1.68,2.21,5.5,5.5,0,0,1-1.86,1,11.4,11.4,0,0,1-3.18.34H15.18A11.49,11.49,0,0,1,12,32.82a5.44,5.44,0,0,1-1.85-1,5.51,5.51,0,0,1-1.68-2.21A10.23,10.23,0,0,1,8,25.92H8V14.08H8a10.2,10.2,0,0,1,.52-3.73A5.54,5.54,0,0,1,12,7.18a11.49,11.49,0,0,1,3.18-.34H27a11.4,11.4,0,0,1,3.18.34,5.5,5.5,0,0,1,1.86,1,5.63,5.63,0,0,1,1.68,2.21,10.2,10.2,0,0,1,.52,3.73V25.92A10.23,10.23,0,0,1,33.74,29.65Z"/><path class="cls-3" d="M23,22a2.62,2.62,0,0,0-1.91-.69,2.61,2.61,0,0,0-1.9.69,1.15,1.15,0,0,0-.35.75,9.7,9.7,0,0,0,0,2c.07.81.2,1.89.37,3a10.93,10.93,0,0,0,.31,1.5,1.48,1.48,0,0,0,1.53.92,1.49,1.49,0,0,0,1.54-.92,10.93,10.93,0,0,0,.31-1.5c.17-1.09.3-2.17.37-3a9.7,9.7,0,0,0,0-2A1.15,1.15,0,0,0,23,22ZM19,18.26a2.16,2.16,0,1,0,2.16-2.16A2.16,2.16,0,0,0,19,18.26Zm2.13-8.5a9.25,9.25,0,0,0-3,18,.13.13,0,0,0,.17-.13c-.05-.32-.09-.64-.14-.95a.3.3,0,0,0-.18-.25,8.07,8.07,0,1,1,6.44,0,.29.29,0,0,0-.19.25c0,.31-.09.63-.13.95a.12.12,0,0,0,.16.13,9.25,9.25,0,0,0-3.09-18ZM20.91,14a5,5,0,0,1,3.63,8.67.39.39,0,0,0-.12.3,9.43,9.43,0,0,1,0,1.06.12.12,0,0,0,.19.11,6.2,6.2,0,1,0-7,0,.12.12,0,0,0,.19-.11,9.43,9.43,0,0,1,0-1.06.39.39,0,0,0-.12-.3A5,5,0,0,1,20.91,14Z"/><path class="cls-3" d="M48.42,28.18h-5l-1.19,3.51H40.19l4.69-13h2.17l4.69,13H49.61ZM44,26.56h3.92L46,20.86h0Z"/><path class="cls-3" d="M61.87,27c0,2.94-1.58,4.83-3.95,4.83a3.22,3.22,0,0,1-3-1.66h0v4.69H53V22.22h1.88V23.8h0a3.35,3.35,0,0,1,3-1.68C60.28,22.12,61.87,24,61.87,27Zm-2,0c0-1.92-1-3.18-2.5-3.18S54.88,25.07,54.88,27s1,3.18,2.49,3.18S59.87,28.89,59.87,27Z"/><path class="cls-3" d="M72.29,27c0,2.94-1.58,4.83-4,4.83a3.22,3.22,0,0,1-3-1.66h0v4.69H63.37V22.22h1.88V23.8h0a3.35,3.35,0,0,1,3-1.68C70.7,22.12,72.29,24,72.29,27Zm-2,0c0-1.92-1-3.18-2.5-3.18S65.3,25.07,65.3,27s1,3.18,2.49,3.18S70.29,28.89,70.29,27Z"/><path class="cls-3" d="M73.86,18.7h2v13h-2Z"/><path class="cls-3" d="M85.92,28.91c-.26,1.72-1.93,2.9-4.07,2.9-2.76,0-4.47-1.85-4.47-4.81s1.72-4.9,4.39-4.9S86,23.9,86,26.77v.67H79.35v.12a2.46,2.46,0,0,0,2.54,2.68,2.14,2.14,0,0,0,2.19-1.33Zm-6.57-2.83h4.74a2.28,2.28,0,0,0-2.32-2.4A2.4,2.4,0,0,0,79.35,26.08Z"/><path class="cls-3" d="M96.38,18.7A4.08,4.08,0,0,1,100.66,23a4.12,4.12,0,0,1-4.34,4.28H93.53v4.44h-2v-13Zm-2.85,6.86h2.31A2.44,2.44,0,0,0,98.6,23a2.43,2.43,0,0,0-2.75-2.58H93.53Z"/><path class="cls-3" d="M101.37,27c0-3,1.75-4.86,4.49-4.86S110.35,24,110.35,27s-1.74,4.85-4.49,4.85S101.37,29.94,101.37,27Zm7,0c0-2.05-.94-3.25-2.51-3.25s-2.51,1.21-2.51,3.25.93,3.24,2.51,3.24S108.37,29,108.37,27Z"/><path class="cls-3" d="M111.71,27c0-2.93,1.61-4.84,4-4.84a3.19,3.19,0,0,1,3,1.68h0V18.7h1.95v13h-1.89V30.08h0a3.21,3.21,0,0,1-3,1.71C113.32,31.79,111.71,29.88,111.71,27Zm2,0c0,1.94,1,3.18,2.5,3.18s2.5-1.26,2.5-3.18-1-3.18-2.5-3.18S113.7,25,113.7,27Z"/><path class="cls-3" d="M128.9,25.48a2.09,2.09,0,0,0-2.23-1.75c-1.49,0-2.49,1.25-2.49,3.23s1,3.23,2.51,3.23a2,2,0,0,0,2.21-1.7h1.87a3.79,3.79,0,0,1-4.1,3.32c-2.7,0-4.46-1.85-4.46-4.85s1.76-4.86,4.44-4.86a3.8,3.8,0,0,1,4.1,3.38Z"/><path class="cls-3" d="M132,29c0-1.66,1.27-2.66,3.52-2.79l2.59-.15v-.72c0-1.05-.69-1.64-1.87-1.64a1.81,1.81,0,0,0-2,1.33h-1.82c.06-1.71,1.65-2.93,3.87-2.93S140,23.34,140,25.2v6.49h-1.86V30.13h-.05a3.4,3.4,0,0,1-3,1.72A2.87,2.87,0,0,1,132,29Zm6.11-.86v-.73l-2.33.15c-1.16.07-1.82.57-1.82,1.38s.69,1.37,1.73,1.37A2.26,2.26,0,0,0,138.07,28.14Z"/><path class="cls-3" d="M145.43,22.11c2.1,0,3.6,1.16,3.65,2.84h-1.83c-.08-.84-.79-1.35-1.87-1.35s-1.76.48-1.76,1.22c0,.57.47.95,1.45,1.19l1.6.37c1.9.46,2.62,1.16,2.62,2.55,0,1.71-1.62,2.88-3.93,2.88s-3.73-1.15-3.88-2.88h1.93c.13.91.86,1.4,2,1.4s1.89-.48,1.89-1.23c0-.59-.36-.9-1.35-1.16l-1.69-.41c-1.71-.41-2.58-1.29-2.58-2.6C141.72,23.26,143.23,22.11,145.43,22.11Z"/><path class="cls-3" d="M153.52,20v2.24h1.8v1.54h-1.8V29c0,.81.36,1.19,1.15,1.19a5.38,5.38,0,0,0,.64-.05v1.53a5,5,0,0,1-1.08.09c-1.92,0-2.67-.72-2.67-2.55V23.76h-1.37V22.22h1.37V20Z"/><path class="cls-3" d="M160.54,22.11c2.1,0,3.6,1.16,3.65,2.84h-1.83c-.08-.84-.79-1.35-1.87-1.35s-1.76.48-1.76,1.22c0,.57.47.95,1.45,1.19l1.6.37c1.9.46,2.62,1.16,2.62,2.55,0,1.71-1.62,2.88-3.93,2.88s-3.73-1.15-3.88-2.88h1.93c.13.91.86,1.4,2,1.4s1.89-.48,1.89-1.23c0-.59-.36-.9-1.35-1.16l-1.69-.41c-1.71-.41-2.58-1.29-2.58-2.6C156.83,23.26,158.34,22.11,160.54,22.11Z"/><path class="cls-3" d="M45,14.42H41.12V8.18h1v5.35H45Z"/><path class="cls-3" d="M46.13,8.32a.61.61,0,1,1,.6.56A.58.58,0,0,1,46.13,8.32Zm.14,1.39h.93v4.71h-.93Z"/><path class="cls-3" d="M50.42,9.62c1.06,0,1.75.49,1.84,1.32h-.89c-.09-.35-.43-.57-.95-.57s-.92.25-.92.62.24.46.75.57l.79.18c.89.21,1.31.6,1.31,1.29,0,.88-.83,1.48-2,1.48s-1.85-.51-1.93-1.34h.93c.11.36.46.58,1,.58s1-.25,1-.63-.22-.46-.69-.58l-.82-.19c-.9-.21-1.31-.61-1.31-1.31S49.35,9.62,50.42,9.62Z"/><path class="cls-3" d="M54.83,8.54V9.73h1v.78h-1v2.42c0,.5.2.71.66.71l.36,0v.77a2.76,2.76,0,0,1-.51,0c-1,0-1.44-.36-1.44-1.27V10.51h-.75V9.73h.75V8.54Z"/><path class="cls-3" d="M61,13.14a1.91,1.91,0,0,1-2,1.37,2.14,2.14,0,0,1-2.17-2.43A2.17,2.17,0,0,1,59,9.62c1.31,0,2.1.89,2.1,2.37v.32H57.73v.06A1.25,1.25,0,0,0,59,13.72a1.14,1.14,0,0,0,1.12-.58Zm-3.27-1.51h2.38A1.13,1.13,0,0,0,59,10.41,1.21,1.21,0,0,0,57.73,11.63Z"/><path class="cls-3" d="M62.31,9.71h.89v.75h.07a1.41,1.41,0,0,1,1.41-.84,1.53,1.53,0,0,1,1.63,1.75v3.05h-.93V11.6c0-.76-.33-1.13-1-1.13a1.08,1.08,0,0,0-1.12,1.19v2.76h-.93Z"/><path class="cls-3" d="M70.06,12.06a2.23,2.23,0,1,1,4.44,0,2.23,2.23,0,1,1-4.44,0Zm3.49,0c0-1-.46-1.62-1.26-1.62S71,11,71,12.06s.46,1.62,1.27,1.62S73.55,13.08,73.55,12.06Z"/><path class="cls-3" d="M75.75,9.71h.9v.75h.07a1.39,1.39,0,0,1,1.4-.84,1.53,1.53,0,0,1,1.63,1.75v3.05h-.93V11.6c0-.76-.33-1.13-1-1.13a1.08,1.08,0,0,0-1.13,1.19v2.76h-.93Z"/></g></g></svg>